<svg width="471" height="471" viewBox="0 0 471 471" fill="none" xmlns="http://www.w3.org/2000/svg">
<g clip-path="url(#clip0_2_14)">
<path d="M59.9506 133.384L59.9506 85.6774C59.9506 66.9774 80.2581 57.5788 92.1925 70.7552L301.834 302.215C309.341 310.504 309.274 324.027 301.684 332.223L253.952 383.768C246.536 391.776 234.71 391.68 227.4 383.552L65.4905 203.536C61.9433 199.592 59.9506 194.243 59.9506 188.665L59.9506 133.384Z" fill="#063674"/>
<path d="M380.631 65.8999C392.547 52.652 412.92 62.0347 412.92 80.7702L412.92 126.898L412.92 179.255C412.92 184.887 410.888 190.284 407.28 194.236L333.933 274.577C326.53 282.685 314.631 282.636 307.284 274.467L263.538 225.829C256.152 217.616 256.152 204.301 263.538 196.088L380.631 65.8999Z" fill="#02B5EF"/>
<path d="M341.489 338.222C335.398 330.834 335.398 320.166 341.489 312.778L377.318 269.318C389.251 254.844 412.75 263.282 412.75 282.04L412.75 368.96C412.75 387.718 389.251 396.156 377.318 381.682L341.489 338.222Z" fill="#02B5EF"/>
<path d="M131.518 338.22C137.605 330.833 137.605 320.167 131.518 312.78L95.4341 268.996C83.503 254.519 60 262.956 60 281.716L60 369.284C60 388.044 83.503 396.481 95.4341 382.004L131.518 338.22Z" fill="#063674"/>
</g>
<defs>
<clipPath id="clip0_2_14">
<rect width="471" height="471" fill="white"/>
</clipPath>
</defs>
</svg>
